<?xml version="1.0" encoding="utf-8"?>
<!-- Generator: Adobe Illustrator 23.0.2, SVG Export Plug-In . SVG Version: 6.00 Build 0)  -->
<svg version="1.1" id="Layer_1" xmlns="http://www.w3.org/2000/svg" xmlns:xlink="http://www.w3.org/1999/xlink" x="0px" y="0px"
	 viewBox="0 0 66.2 96.5" style="enable-background:new 0 0 66.2 96.5;" xml:space="preserve">
<style type="text/css">
	.st0{fill:#FFFFFF;}
</style>
<g id="Group_37" transform="translate(-16 -403)">
	<g id="Group_33" transform="translate(42.465 403)">
		<path id="Path_129" class="st0" d="M16.5,82.6c-0.7,0-1.3-0.5-1.3-1.2c0-0.1,0-0.1,0-0.2V20.4c0-0.7,0.6-1.3,1.3-1.3
			c0.7,0,1.3,0.6,1.3,1.3l0,0v60.9c0,0.7-0.5,1.3-1.2,1.3C16.6,82.6,16.6,82.6,16.5,82.6z"/>
	</g>
	<g id="Group_34" transform="translate(42.465 403)">
		<path id="Path_130" class="st0" d="M24.5,60.1h-7.9c-0.7,0-1.3-0.6-1.3-1.3c0-0.7,0.6-1.3,1.3-1.3h6.6
			c-0.1-22.2-4.8-35.3-6.6-35.7c-0.7,0-1.3-0.5-1.3-1.2c0-0.1,0-0.1,0-0.2c0-0.7,0.6-1.3,1.3-1.3c5.6,0,9.3,20.5,9.3,39.7
			c0,0.7-0.5,1.3-1.2,1.3C24.6,60.1,24.5,60.1,24.5,60.1z"/>
	</g>
	<g id="Group_35" transform="translate(16 403)">
		<path id="Path_131" class="st0" d="M24.5,42.9c-5.1,0-9.2-4.1-9.3-9.1c0,0,0-0.1,0-0.1V20.4c0-0.7,0.6-1.3,1.3-1.3
			s1.3,0.6,1.3,1.3l0,0v13.2c0,3.7,3,6.6,6.6,6.6s6.6-3,6.6-6.6V20.4c0-0.7,0.6-1.3,1.3-1.3c0.7,0,1.3,0.6,1.3,1.3l0,0v13.2
			c0,5.1-4.1,9.2-9.1,9.3C24.5,42.9,24.5,42.9,24.5,42.9z"/>
	</g>
	<g id="Group_36" transform="translate(23.94 403)">
		<path id="Path_132" class="st0" d="M16.5,82.6c-0.7,0-1.3-0.5-1.3-1.2c0-0.1,0-0.1,0-0.2V20.4c0-0.7,0.6-1.3,1.3-1.3
			c0.7,0,1.3,0.6,1.3,1.3l0,0v60.9c0,0.7-0.5,1.3-1.2,1.3C16.6,82.6,16.6,82.6,16.5,82.6z"/>
	</g>
</g>
</svg>
