<svg xmlns="http://www.w3.org/2000/svg" width="284.737" height="184.334" viewBox="0 0 284.737 184.334"><defs><style>.a{fill:none;stroke:#fff;stroke-miterlimit:10;stroke-width:0.25px;}.b{fill:#e65599;}.c{fill:#e37baf;}.d{fill:#00b5ee;}.e{fill:#4bb8ad;}.f{fill:#fff;}</style></defs><g transform="translate(-116.297 224.211)"><line class="a" x2="40.685" y2="115.939" transform="translate(216.44 -218.135)"/><path class="a" d="M127.614-110.379c5.772-25.84,18.345-85.323,87.575-106.894s153.124,7.205,168.31,99.839"/><path class="a" d="M215.189-217.273c-8.594,2.864-71.146,36.1-32.051,163.153"/><path class="a" d="M221.744-218.9c10.437-2.181,86.5-5.286,118.751,118.841"/><line class="a" y1="73.303" x2="218.932" transform="translate(129.382 -188.997)"/><line class="a" y1="71.348" x2="219.909" transform="translate(156.749 -141.106)"/><path class="b" d="M180.293-142.184l9.412,32.2,4.274,14.265,3.843,12.925.518,1.642H172.061l-8.27-30.559L145.928-84.866l-18.314-25.513q-2.652,9.337-5.784,22.915A39.189,39.189,0,0,1,120.2-81.3a2.033,2.033,0,0,1-2.007.974q-1.9,0-1.9-1.3a40.97,40.97,0,0,1,1.211-4.366l2.684-9.207,4.674-15.907L134-142.184l23.666,34.3Z"/><path class="c" d="M206.486-113.609h.141a5.922,5.922,0,0,1,4.148,1.71,5.436,5.436,0,0,1,1.664,3.985,5.446,5.446,0,0,1-1.664,4.078,5.67,5.67,0,0,1-4.148,1.641,5.572,5.572,0,0,1-2.883-.774,5.683,5.683,0,0,1-2.109-2.109,5.285,5.285,0,0,1-.8-2.836,5.709,5.709,0,0,1,.75-2.883,5.188,5.188,0,0,1,2.086-2.062A5.575,5.575,0,0,1,206.486-113.609Z"/><path class="d" d="M244.775-140.152v3.025l-.259,23.688.259,32.29H218.321l.259-35.315-.3-21.57.043-2.118Z"/><path class="c" d="M256.985-113.609h.14a5.925,5.925,0,0,1,4.149,1.71,5.44,5.44,0,0,1,1.664,3.985,5.449,5.449,0,0,1-1.664,4.078,5.673,5.673,0,0,1-4.149,1.641,5.572,5.572,0,0,1-2.883-.774,5.7,5.7,0,0,1-2.109-2.109,5.294,5.294,0,0,1-.8-2.836,5.709,5.709,0,0,1,.75-2.883,5.194,5.194,0,0,1,2.086-2.062A5.579,5.579,0,0,1,256.985-113.609Z"/><path class="e" d="M299.488-143.7l34.559,62.548H304.072l-4.176-7.91H285.422L272.67-89.1l-2.154-.044-2.845,5.283A19.848,19.848,0,0,1,265.92-80.9a1.578,1.578,0,0,1-1.24.577q-1.479,0-1.48-1.3a5.71,5.71,0,0,1,.843-2.1q.843-1.534,5.9-10.094l26.168-44.047Zm-13.447,28.4-7.552,12.7-6.041,10.465,12.892.173,12.935-.173Z"/><path class="f" d="M291.289-64.676A30.406,30.406,0,0,1,286.9-51.042a13.109,13.109,0,0,1-6.922,5.757q-5.379,1.734-8.686-4.257-1.967,7.52-7.111,9.176a8.135,8.135,0,0,1-6.961-.641,10.745,10.745,0,0,1-4.561-6.275,19.241,19.241,0,0,1-.726-8.93q.332-2.173.632-3.647t.8-3.138q.5-1.665.549-1.77.7-2.373,2.1-2.828a3.449,3.449,0,0,1,2.564.078q1.16.531,1.323,1.037a1.93,1.93,0,0,1,.108.868q-.533,1.293-.759,2.052t-.575,1.82a19.967,19.967,0,0,0-.276,11.964q1.608,4.99,4.648,4.01,3.9-1.256,5.106-13.262l.344-3.209q-.366-7.541,1.818-8.243l.234-.076q2.729-.879,3.281.836.4,1.248-.214,5.747a22.393,22.393,0,0,0,.473,9.745q1.508,4.676,4.7,3.647,2.574-.828,4.382-4.294a22.028,22.028,0,0,0,2.293-7.839,14.229,14.229,0,0,0,.327-1.654,11.643,11.643,0,0,1-5.635-2.4,9.431,9.431,0,0,1-3.218-4.512,6.357,6.357,0,0,1,.4-5.034,7.37,7.37,0,0,1,4.594-3.5,6.246,6.246,0,0,1,5.2.777,8.136,8.136,0,0,1,3.3,4.489,19.815,19.815,0,0,1,1.033,5.347,30.693,30.693,0,0,0,7.059-4,2.515,2.515,0,0,1,1.162-.8,1.645,1.645,0,0,1,1.422.273,2.811,2.811,0,0,1,1.111,1.578,1.558,1.558,0,0,1-.693,1.858,26.1,26.1,0,0,1-8.963,5.3ZM281.96-72a5.042,5.042,0,0,0,4.291,3.437,14.333,14.333,0,0,0-.445-4.589q-.9-2.808-2.7-2.228a1.811,1.811,0,0,0-1.178,1.283A3.368,3.368,0,0,0,281.96-72Z"/><path class="f" d="M306.91-54.65a8.583,8.583,0,0,1-7.3-.746,10.689,10.689,0,0,1-4.755-6.213,17.968,17.968,0,0,1,.516-12.686q2.576-6.294,8.189-8.1a7.641,7.641,0,0,1,6.249.568,8.673,8.673,0,0,1,4.131,5.209,16.878,16.878,0,0,1,.493,2.6q4.764-2.568,7.946-9.789a1.164,1.164,0,0,1,.718-.576,1.525,1.525,0,0,1,1.291.4,2.613,2.613,0,0,1,1.023,1.305,1.524,1.524,0,0,1,.027,1.153,25.883,25.883,0,0,1-10.178,12.745Q316.031-57.587,306.91-54.65Zm-.438-5.365q2.027-.654,3.052-3.48a9.344,9.344,0,0,0,.532-5.162q-3.287-.316-3.914-2.267a5.81,5.81,0,0,1,.771-4.551,2.569,2.569,0,0,0-.984-1.317,1.631,1.631,0,0,0-1.36-.079q-2.964.956-3.949,5.1a14.41,14.41,0,0,0,.218,7.891Q302.5-58.736,306.472-60.015Z"/><path class="f" d="M326.226-72.146a42.464,42.464,0,0,1,2-11.83q2.025-6.933,4.441-7.714,3.43-1.1,4.284,1.546a12.148,12.148,0,0,1,.45,4.2,13.578,13.578,0,0,0,.048,2.953q.377,1.171,2.053.63t4.768-4.032a1.722,1.722,0,0,1,.6-.279q.467-.15,1.485.468a2.627,2.627,0,0,1,1.23,1.282,1.4,1.4,0,0,1,0,1.074q-3.32,5.716-7.764,7.149-5.3,1.708-6.758-2.813-.051-.154-.385-5.47a15.484,15.484,0,0,0-.645,2.273,96.789,96.789,0,0,0-2.123,17.981,3.647,3.647,0,0,1-2.7,3.106q-3.2,1.031-4.854-4.114l-.2-.624a59.636,59.636,0,0,1-2.883-17.228q.039-3.885,2.612-4.713a2.328,2.328,0,0,1,1.838.1,2.226,2.226,0,0,1,1.126,1.359Z"/><path class="f" d="M358.232-71.358a7.133,7.133,0,0,1-7.02-1.223q-3.121-2.479-4.88-7.936-.528-1.638-.726-2.52a87.5,87.5,0,0,1-1.661-25.453,33.714,33.714,0,0,1,2.875-11.639q2.343-5.016,6.319-6.3a5.088,5.088,0,0,1,4.232.314,5.629,5.629,0,0,1,2.621,3.329l.2.623q1.758,8.125-1.092,18.51a59.849,59.849,0,0,1-7.924,17.87,35.029,35.029,0,0,0,.918,3.919q2.034,6.315,5.777,5.11,3.9-1.255,6.895-8.245a1.944,1.944,0,0,1,1.189-.985,2.436,2.436,0,0,1,1.773.16,2.216,2.216,0,0,1,1.267,1.4,3.13,3.13,0,0,1-.3,2.29Q364.937-73.518,358.232-71.358ZM353.25-119.4q-3.275,1.056-3.9,10.465a77.856,77.856,0,0,0,.616,17.269,77.072,77.072,0,0,0,4.691-14.418q1.75-7.792.42-12.184Q354.576-119.83,353.25-119.4Z"/><path class="f" d="M364.336-83.393a19.59,19.59,0,0,1,.3-12.961q2.358-6.567,7.582-8.251a9.04,9.04,0,0,1,2.879-.411q-4.754-27.038,6.161-30.554a5.693,5.693,0,0,1,4.438.29,5.852,5.852,0,0,1,2.936,3.1,13.513,13.513,0,0,1,.6,1.612,30.755,30.755,0,0,1,.572,15.392q-.878,4.757-1.485,7.276T386-99.751q-1.716,5.629-1.956,6.48l.226.7q2.16,6.705,5.746,5.549,4.053-1.305,6.586-8.4a1.79,1.79,0,0,1,1.122-.791,2.545,2.545,0,0,1,1.863.174,2.258,2.258,0,0,1,1.307,1.386,3.161,3.161,0,0,1-.046,1.994q-3.17,8.594-9.873,10.753-5.225,1.683-9.373-2.917a8.6,8.6,0,0,1-6.4,8.172,7.535,7.535,0,0,1-6.441-.763A10.277,10.277,0,0,1,364.336-83.393Zm10.352.881a4.311,4.311,0,0,0,2.882-3.208q.7-2.5-.281-8.215l-.973-6.226a8.847,8.847,0,0,0-5.755,5.641A12.576,12.576,0,0,0,370.294-86l.276.857Q371.959-81.631,374.688-82.512Zm7.484-46.212q-2.572.829-2.776,5.542a56.567,56.567,0,0,0-.083,5.748q.1,3.372,2.45,16.551a10.932,10.932,0,0,0,.272-1.293q.105-.2.954-3.448t1.42-6.007a53.662,53.662,0,0,0,.85-7.244,20.382,20.382,0,0,0-.664-7.4Q383.653-129.2,382.172-128.724Z"/></g></svg>