<svg fill="#918E8E" xmlns="http://www.w3.org/2000/svg" xmlns:xlink="http://www.w3.org/1999/xlink" viewBox="0 0 24 24" version="1.1" x="0px" y="0px"><title>icon/search</title><desc>Created with Sketch.</desc><g stroke="none" stroke-width="1" fill="none" fill-rule="evenodd"><path d="M14.4380244,15.1451312 C13.1187769,16.3000703 11.3911287,17 9.5,17 C5.35785763,17 2,13.6421424 2,9.5 C2,5.35785763 5.35785763,2 9.5,2 C13.6421424,2 17,5.35785763 17,9.5 C17,11.3911287 16.3000703,13.1187769 15.1451312,14.4380244 L20.8535534,20.1464466 C21.3249579,20.6178511 20.6178511,21.3249579 20.1464466,20.8535534 L14.4380244,15.1451312 L14.4380244,15.1451312 Z M14.0727126,14.119562 C14.0873878,14.103045 14.103045,14.0873878 14.119562,14.0727126 C15.2820914,12.8983473 16,11.2830138 16,9.5 C16,5.91014237 13.0898576,3 9.5,3 C5.91014237,3 3,5.91014237 3,9.5 C3,13.0898576 5.91014237,16 9.5,16 C11.2830138,16 12.8983473,15.2820914 14.0727126,14.119562 L14.0727126,14.119562 Z" fill="#918E8E" fill-rule="nonzero"></path></g></svg>